<svg xmlns="http://www.w3.org/2000/svg" viewBox="0 0 537.56 214.36"><defs><style>.e{fill:#00cdbe;}.f{fill:#00bdde;}.g{fill:#00a896;}.h{fill:#008bb4;}.i{fill:#fff;}.j{fill:#009cdc;}.k{fill:#a9dad7;}.l{fill:#231f20;}</style></defs><g id="a"></g><g id="b"><g id="c"><g><g id="d"><path class="e" d="M170.62,99.69l-4.99-2.88c-39.91-23.04-89.79,5.76-89.79,51.84v5.76c0,46.08,49.89,74.88,89.79,51.84l4.99-2.88c39.91-23.04,39.91-80.64,0-103.68"></path><path class="j" d="M94.78,65.5l-4.99-2.88C49.89,39.58,0,68.38,0,114.46v5.76c0,46.08,49.89,74.88,89.79,51.84l4.99-2.88c39.91-23.04,39.91-80.64,0-103.68"></path><path class="f" d="M165.04,11.39l-5.57-3.23c-39.91-23.13-89.88,5.67-89.88,51.8v6.46c0,46.12,49.97,74.92,89.88,51.79l5.57-3.23c39.79-23.06,39.79-80.52,0-103.59"></path><path class="g" d="M94.78,169.28c17.05-9.85,26.8-26.01,29.28-43.08-12.98-1.21-25.22-6.69-34.81-15.3-8.28,10.08-13.41,23.08-13.41,37.85v5.76c0,7.98,1.5,15.45,4.18,22.21,3.3-1.2,6.57-2.71,9.77-4.56l4.99-2.88Z"></path><path class="g" d="M165.63,96.91c-15.27-8.82-32.01-10.04-46.85-5.6,5.24,10.89,6.99,23.11,5.27,34.89,11.69,1.1,23.96-1.26,35.41-7.89l5.57-3.23c4.99-2.89,9.35-6.32,13.09-10.16-2.33-1.85-4.82-3.57-7.52-5.12l-4.99-2.88Z"></path><path class="h" d="M69.59,66.51c0,18.21,7.79,33.71,19.67,44.39,7.66-9.33,18.02-16.16,29.53-19.59-4.93-10.25-12.92-19.31-24-25.71l-4.99-2.88c-6.5-3.75-13.27-6.12-20.04-7.27-.11,1.52-.17,3.05-.17,4.61v6.46Z"></path><path class="k" d="M118.78,91.3c-11.5,3.43-21.87,10.27-29.53,19.59,9.58,8.62,21.83,14.09,34.8,15.3,1.71-11.79-.04-24.01-5.27-34.9"></path><path class="i" d="M76.91,78.56c-4.11,0-8.21,1.17-11.83,3.48-6.44,4.1-10.14,10.84-10.14,18.5v23.35c0,7.94,4.11,15.05,10.98,19.02,6.55,3.78,14.31,3.96,20.97,.53-.01-.37-.02-.74-.02-1.11v-23.35c0-2.77,.36-5.48,1.05-8.09-2.9-4.79-4.42-10.27-4.42-16v-15.29c-2.15-.69-4.38-1.03-6.6-1.03m-.01,76.28c-5.31,0-10.62-1.39-15.46-4.19-9.68-5.59-15.45-15.59-15.45-26.77v-23.35c0-10.62,5.34-20.36,14.28-26.05,8.97-5.71,20.04-6.46,29.61-2l2.59,1.21v21.18c0,4.63,1.39,9.02,4.01,12.7l1.35,1.89-.77,2.19c-.81,2.32-1.22,4.79-1.22,7.32v23.35c0,1,.07,2.01,.2,3.02l.39,2.97-4.07,2.35c-4.84,2.79-10.15,4.19-15.45,4.19"></path><path class="i" d="M117.84,88.03c5.36,0,10.62,1.42,15.39,4.17l14.69,8.48c5.5-4.15,8.7-10.56,8.66-17.59-.04-7.89-4.14-14.95-10.97-18.89l-20.22-11.68c-6.87-3.97-15.08-3.97-21.95,0s-10.98,11.08-10.98,19.02v2.3l20.11,11.61c1.35,.78,2.64,1.66,3.86,2.62,.47-.02,.95-.03,1.42-.03m30.27,23.09l-19.36-11.17c-4.1-2.37-8.71-3.36-13.32-2.84l-2,.22-1.5-1.35c-1.17-1.06-2.46-2-3.85-2.8l-20.22-11.68c-.52-.3-1.08-.59-1.79-.92l-2.58-1.21v-7.86c0-11.18,5.78-21.18,15.45-26.77s21.23-5.59,30.91,0l20.22,11.68c9.61,5.55,15.39,15.5,15.45,26.6,.05,11.11-5.61,21.11-15.17,26.76l-2.25,1.33Z"></path><path class="i" d="M96.61,148.19c1.64,5.97,5.79,11.02,11.51,13.84,6.66,3.29,14.19,3.03,20.64-.7l20.22-11.68c6.88-3.97,10.98-11.08,10.98-19.01s-4.1-15.05-10.98-19.02l-.88-.51-18.23,10.53c-1.28,.74-2.62,1.39-4,1.95-2.53,6.45-7.19,11.86-13.3,15.38l-15.96,9.21Zm21.2,25.1c-4.63,0-9.27-1.07-13.65-3.23-9.3-4.58-15.66-13.39-17-23.55l-.39-2.97,21.33-12.32c4.89-2.82,8.34-7.12,9.98-12.43l.69-2.23,2.22-.71c1.53-.49,3.01-1.14,4.4-1.95l20.17-11.64c.1-.06,.18-.11,.25-.16l2.25-1.33,5.39,3.11c9.68,5.59,15.45,15.59,15.45,26.77s-5.78,21.18-15.45,26.77l-20.22,11.67c-4.85,2.8-10.13,4.21-15.43,4.21"></path><path class="i" d="M97.96,109.44c5.18,5.79,13.16,8.49,20.7,7,1.32-6.84-.64-13.93-5.26-19-6.75,1.4-12.5,5.88-15.44,12m16.61,16.35c-9.83,0-19.49-4.74-25.39-13.02l-1.34-1.89,.76-2.19c3.88-11.12,14.03-19.16,25.85-20.48l2-.22,1.49,1.35c8.83,7.97,12.24,20.56,8.69,32.07l-.69,2.23-2.22,.71c-2.99,.96-6.08,1.42-9.14,1.42"></path></g><g><path class="l" d="M254.54,68.87h-10.49c-1.6,0-2.9,1.3-2.9,2.9v71.36c0,1.6,1.3,2.9,2.9,2.9h2.16c1.6,0,2.9-1.3,2.9-2.9v-26.38c0-.79,.64-1.42,1.42-1.42h4c12.75,0,23.12-10.42,23.12-23.23s-10.37-23.23-23.12-23.23Zm0,38.49h-4c-.79,0-1.42-.64-1.42-1.42v-27.68c0-.79,.64-1.42,1.42-1.42h4c8.36,0,15.16,6.85,15.16,15.26s-6.8,15.26-15.16,15.26Z"></path><path class="l" d="M303.92,71.26c-.14-1.32-1.4-2.39-2.79-2.39h-10.59c-1.39,0-2.64,1.07-2.78,2.32l-9.62,45.83c-1.25,5.62-1.85,11.51-1.85,18v8.11c0,1.6,1.3,2.9,2.9,2.9h2.16c1.6,0,2.9-1.3,2.9-2.9v-8.11c0-5.29,.56-10.65,1.83-17.39,.06-.36,.41-.68,.8-.8,1.84-.32,4.55-.39,7.09,1.11,3.46,1.91,6.96,2.68,10.7,2.36,.66-.06,1.54,.7,1.68,1.44,.78,4.58,1.18,9.05,1.18,13.29l.11,8.1c0,1.6,1.3,2.9,2.9,2.9h2.05c1.6,0,2.9-1.3,2.9-2.9v-8.11c0-6.04-.66-12.14-1.96-18.1l-9.61-45.66Zm.35,40.88c-.09,.13-.28,.18-.44,.2-1.98,.3-3.88-.09-5.78-1.2-2.7-1.61-5.55-2.37-8.92-2.37h-.03c-.34-.04-.66-.22-.85-.48-.13-.18-.17-.38-.13-.57l6.28-29.8c.06-.56,.7-1.07,1.32-1.07h.11c.63,0,1.26,.51,1.33,1.14l7.14,33.65c.05,.22,.04,.4-.04,.51Z"></path><path class="l" d="M354.92,137.98c-3.29-.72-6.06-3.07-7.25-6.13l-4.76-12.66c-.77-1.98-1.88-3.78-3.34-5.47-.03-.07,.02-.3,.18-.42,8.52-3.55,14.23-12.23,14.23-21.63,0-12.78-10.16-22.8-23.12-22.8h-8.32c-1.6,0-2.9,1.3-2.9,2.9v71.36c0,1.6,1.3,2.9,2.9,2.9h2.16c1.6,0,2.9-1.3,2.9-2.9v-27.68c0-.11,.03-.16,.07-.14,1.3,.3,2.62,.91,3.76,1.73,1.84,1.23,3.24,2.95,4.04,4.95l4.76,12.55c2.49,6.22,8.06,10.58,14.58,11.38,1.12,.09,1.79-.3,2.15-.63,.37-.34,.81-1,.81-2.16v-2.05c0-1.36-1.56-2.81-2.86-3.1Zm-8.89-46.31c0,8.6-6.8,15.59-15.16,15.59h-1.95c-.79,0-1.32-.53-1.32-1.31v-27.89c0-.7,.55-1.21,1.32-1.21h1.95c8.5,0,15.16,6.51,15.16,14.83Z"></path><path class="l" d="M389.66,71.26c-.15-1.32-1.4-2.39-2.79-2.39h-10.59c-1.39,0-2.64,1.07-2.78,2.32l-9.73,45.85c-1.23,6.04-1.85,12.09-1.85,17.99v8.11c0,1.6,1.3,2.9,2.9,2.9h2.16c1.6,0,2.9-1.3,2.9-2.9v-8.11c0-1.93,.11-3.79,.21-5.62,0-.23,.34-.51,.73-.57,3.83-.88,7.3,.24,10.98,1.43,3.56,1.15,7.24,2.34,11.26,1.54,.1,1.13,.1,2.15,.1,3.23v8.11c0,1.6,1.3,2.9,2.9,2.9h2.27c1.6,0,2.9-1.3,2.9-2.9v-8.11c0-5.29-.66-11.04-2.07-18.1l-9.5-45.66Zm-.08,40.68c-.27,.28-.7,.32-1.05,.29-2.15-.11-4.29-.79-6.36-1.45-2.08-.67-4.22-1.36-6.37-1.46-.44-.04-1.04-.43-1.43-.94-.3-.39-.45-.8-.4-1.09l6.17-29.37c.06-.56,.69-1.07,1.32-1.07h.11c.63,0,1.26,.51,1.33,1.14l6.91,32.71c.08,.55,0,1-.24,1.25Zm-8.32,6.57c3.08,1.06,6.27,2.15,9.88,1.57,.27,.02,.55,.15,.65,.24l.07,.38c.18,.99,.36,1.93,.46,3,0,.04,.02,.07,.02,.1-.02,0-.03,.01-.04,.02-3.82,1.12-7.32-.11-11.03-1.41-2.75-.97-5.61-1.97-8.66-1.97-.27,0-.57-.16-.8-.43-.26-.31-.38-.71-.32-1.06l.21-1.06c.14-.54,.85-.98,1.37-1.05,2.89-.14,5.46,.74,8.19,1.67Z"></path><path class="l" d="M472.17,125.6c9.29,0,16.85-7.56,16.85-16.85v-36.98c0-1.6-1.3-2.9-2.9-2.9h-2.16c-1.6,0-2.9,1.3-2.9,2.9v36.98c0,4.9-3.98,8.89-8.88,8.89s-8.88-3.98-8.88-8.89v-36.98c0-1.6-1.3-2.9-2.9-2.9h-2.16c-1.6,0-2.9,1.3-2.9,2.9v36.98c0,9.29,7.56,16.85,16.85,16.85Z"></path><path class="l" d="M492.1,134.94c-.62-1.41-2.72-1.91-4.01-1.34-4.95,2.26-10.73,3.73-16.29,4.15-6.99,.53-13.13-.52-17.76-3.05-4.06-2.15-7.55-3.67-10.96-4.78h0c.11-.92,.22-1.89,.22-2.78v-39.9c0-10.42-8.53-18.9-19.01-18.9s-18.9,8.48-18.9,18.9v39.9c0,10.42,8.48,18.9,18.9,18.9,5.89,0,11.57-2.86,15.16-7.62,.44-.53,1.41-.9,1.8-.74,2.9,.93,5.68,2.25,8.96,3.95,5.12,2.79,11.28,4.2,18.29,4.2,1.18,0,2.52,0,3.84-.11,6.81-.55,13.77-2.34,19.62-5.05,1.43-.71,1.92-2.31,1.17-3.95l-1.04-1.77Zm-61.19,.5l.46,.04c-2,1.7-4.45,2.59-7.1,2.59-1.74,0-3.52-.45-5.19-1.31,3.92-1.17,7.9-1.61,11.82-1.32Zm-6.63-59.14c6.09,0,11.05,4.91,11.05,10.94v39.9c0,.25-.03,.52-.05,.8,0,.02,0,.03,0,.04-1.27-.24-2.54-.41-3.8-.5-6-.43-11.81,.44-17.74,2.63-.27-.93-.39-1.8-.39-2.98v-39.9c0-5.93,5.01-10.94,10.94-10.94Z"></path><path class="l" d="M535.6,116.92l-9.61-45.66c-.15-1.32-1.4-2.39-2.79-2.39h-10.6c-1.39,0-2.64,1.07-2.78,2.32l-9.62,45.83c-1.25,5.62-1.86,11.51-1.86,18v8.11c0,1.6,1.3,2.9,2.9,2.9h2.16c1.6,0,2.9-1.3,2.9-2.9v-8.11c0-5.29,.56-10.65,1.83-17.39,.06-.36,.4-.68,.8-.8,1.84-.32,4.55-.39,7.09,1.11,3.46,1.91,6.95,2.68,10.7,2.36,.65-.06,1.54,.7,1.68,1.44,.78,4.58,1.18,9.05,1.18,13.29l.11,8.1c0,1.6,1.3,2.9,2.9,2.9h2.05c1.6,0,2.9-1.3,2.9-2.9v-8.11c0-6.04-.66-12.14-1.96-18.1Zm-9.26-4.78c-.09,.13-.28,.18-.44,.2-1.98,.3-3.88-.09-5.78-1.2-2.7-1.61-5.55-2.37-8.92-2.37h-.03c-.34-.04-.66-.22-.85-.48-.13-.18-.17-.38-.13-.57l6.28-29.8c.06-.56,.69-1.07,1.32-1.07h.11c.63,0,1.25,.51,1.33,1.14l7.14,33.65c.05,.22,.04,.4-.04,.51Z"></path></g></g></g></g></svg>